<mxfile host="app.diagrams.net" modified="2021-10-21T11:21:24.120Z" agent="5.0 (Windows NT 10.0; Win64; x64) AppleWebKit/537.36 (KHTML, like Gecko) Chrome/94.0.4606.81 Safari/537.36" etag="rf29GlYPJww1Ehxff_Ue" version="15.5.6" type="github">
  <diagram id="MHLL9antqY9xu1P00Trq" name="Page-1">
    <mxGraphModel dx="1422" dy="762" grid="1" gridSize="10" guides="1" tooltips="1" connect="1" arrows="1" fold="1" page="1" pageScale="1" pageWidth="1169" pageHeight="827" math="0" shadow="0">
      <root>
        <mxCell id="0" />
        <mxCell id="1" parent="0" />
        <mxCell id="odGo4AvadJXL_m75QrnM-1" value="IB CS Internal Assessment - Plant Identification System - Finn Lestrange" style="rounded=1;whiteSpace=wrap;html=1;" vertex="1" parent="1">
          <mxGeometry x="720" y="770" width="420" height="40" as="geometry" />
        </mxCell>
        <mxCell id="odGo4AvadJXL_m75QrnM-4" style="edgeStyle=orthogonalEdgeStyle;rounded=0;orthogonalLoop=1;jettySize=auto;html=1;exitX=0.5;exitY=1;exitDx=0;exitDy=0;exitPerimeter=0;entryX=0.5;entryY=0.125;entryDx=0;entryDy=0;entryPerimeter=0;" edge="1" parent="1" source="odGo4AvadJXL_m75QrnM-2" target="odGo4AvadJXL_m75QrnM-3">
          <mxGeometry relative="1" as="geometry" />
        </mxCell>
        <mxCell id="odGo4AvadJXL_m75QrnM-2" value="Start" style="strokeWidth=2;html=1;shape=mxgraph.flowchart.terminator;whiteSpace=wrap;" vertex="1" parent="1">
          <mxGeometry x="535" y="50" width="100" height="60" as="geometry" />
        </mxCell>
        <mxCell id="odGo4AvadJXL_m75QrnM-6" style="edgeStyle=orthogonalEdgeStyle;rounded=0;orthogonalLoop=1;jettySize=auto;html=1;exitX=0.5;exitY=1;exitDx=0;exitDy=0;entryX=0.5;entryY=0;entryDx=0;entryDy=0;" edge="1" parent="1" source="odGo4AvadJXL_m75QrnM-3" target="odGo4AvadJXL_m75QrnM-5">
          <mxGeometry relative="1" as="geometry" />
        </mxCell>
        <mxCell id="odGo4AvadJXL_m75QrnM-3" value="User uploads image of plant to server" style="html=1;strokeWidth=2;shape=manualInput;whiteSpace=wrap;rounded=1;size=26;arcSize=11;spacingBottom=-11;" vertex="1" parent="1">
          <mxGeometry x="535" y="130" width="100" height="80" as="geometry" />
        </mxCell>
        <mxCell id="odGo4AvadJXL_m75QrnM-8" style="edgeStyle=orthogonalEdgeStyle;rounded=0;orthogonalLoop=1;jettySize=auto;html=1;exitX=0.5;exitY=1;exitDx=0;exitDy=0;entryX=0.5;entryY=0;entryDx=0;entryDy=0;" edge="1" parent="1" source="odGo4AvadJXL_m75QrnM-5" target="odGo4AvadJXL_m75QrnM-7">
          <mxGeometry relative="1" as="geometry" />
        </mxCell>
        <mxCell id="odGo4AvadJXL_m75QrnM-5" value="Image stored in local state" style="verticalLabelPosition=middle;verticalAlign=middle;html=1;shape=process;whiteSpace=wrap;rounded=1;size=0.14;arcSize=6;labelPosition=center;align=center;" vertex="1" parent="1">
          <mxGeometry x="535" y="250" width="100" height="60" as="geometry" />
        </mxCell>
        <mxCell id="odGo4AvadJXL_m75QrnM-10" style="edgeStyle=orthogonalEdgeStyle;rounded=0;orthogonalLoop=1;jettySize=auto;html=1;exitX=0;exitY=0.5;exitDx=0;exitDy=0;startArrow=none;" edge="1" parent="1" source="odGo4AvadJXL_m75QrnM-13" target="odGo4AvadJXL_m75QrnM-9">
          <mxGeometry relative="1" as="geometry" />
        </mxCell>
        <mxCell id="odGo4AvadJXL_m75QrnM-16" style="edgeStyle=orthogonalEdgeStyle;rounded=0;orthogonalLoop=1;jettySize=auto;html=1;exitX=1;exitY=0.5;exitDx=0;exitDy=0;entryX=0;entryY=0.5;entryDx=0;entryDy=0;entryPerimeter=0;startArrow=none;" edge="1" parent="1" source="odGo4AvadJXL_m75QrnM-17" target="odGo4AvadJXL_m75QrnM-15">
          <mxGeometry relative="1" as="geometry" />
        </mxCell>
        <mxCell id="odGo4AvadJXL_m75QrnM-7" value="Plant.id api called with the image of the plant as a prop" style="shape=parallelogram;html=1;strokeWidth=2;perimeter=parallelogramPerimeter;whiteSpace=wrap;rounded=1;arcSize=12;size=0.23;spacing=3;spacingLeft=40;spacingRight=40;" vertex="1" parent="1">
          <mxGeometry x="498.5" y="344" width="173" height="70" as="geometry" />
        </mxCell>
        <mxCell id="odGo4AvadJXL_m75QrnM-11" style="edgeStyle=orthogonalEdgeStyle;rounded=0;orthogonalLoop=1;jettySize=auto;html=1;exitX=0.5;exitY=1;exitDx=0;exitDy=0;" edge="1" parent="1" source="odGo4AvadJXL_m75QrnM-9">
          <mxGeometry relative="1" as="geometry">
            <mxPoint x="290" y="530" as="targetPoint" />
          </mxGeometry>
        </mxCell>
        <mxCell id="odGo4AvadJXL_m75QrnM-9" value="Displays information about plant to user" style="rounded=1;whiteSpace=wrap;html=1;absoluteArcSize=1;arcSize=14;strokeWidth=2;" vertex="1" parent="1">
          <mxGeometry x="240" y="329" width="100" height="100" as="geometry" />
        </mxCell>
        <mxCell id="odGo4AvadJXL_m75QrnM-12" value="End" style="strokeWidth=2;html=1;shape=mxgraph.flowchart.terminator;whiteSpace=wrap;" vertex="1" parent="1">
          <mxGeometry x="240" y="530" width="100" height="60" as="geometry" />
        </mxCell>
        <mxCell id="odGo4AvadJXL_m75QrnM-20" style="edgeStyle=orthogonalEdgeStyle;rounded=0;orthogonalLoop=1;jettySize=auto;html=1;exitX=0.5;exitY=0;exitDx=0;exitDy=0;exitPerimeter=0;entryX=1;entryY=0.5;entryDx=0;entryDy=0;entryPerimeter=0;" edge="1" parent="1" source="odGo4AvadJXL_m75QrnM-15" target="odGo4AvadJXL_m75QrnM-2">
          <mxGeometry relative="1" as="geometry" />
        </mxCell>
        <mxCell id="odGo4AvadJXL_m75QrnM-21" value="Yes" style="edgeLabel;html=1;align=center;verticalAlign=middle;resizable=0;points=[];" vertex="1" connectable="0" parent="odGo4AvadJXL_m75QrnM-20">
          <mxGeometry x="-0.3392" y="-2" relative="1" as="geometry">
            <mxPoint as="offset" />
          </mxGeometry>
        </mxCell>
        <mxCell id="odGo4AvadJXL_m75QrnM-23" style="edgeStyle=orthogonalEdgeStyle;rounded=0;orthogonalLoop=1;jettySize=auto;html=1;exitX=0.5;exitY=1;exitDx=0;exitDy=0;exitPerimeter=0;entryX=0.5;entryY=0;entryDx=0;entryDy=0;entryPerimeter=0;" edge="1" parent="1" source="odGo4AvadJXL_m75QrnM-15" target="odGo4AvadJXL_m75QrnM-22">
          <mxGeometry relative="1" as="geometry" />
        </mxCell>
        <mxCell id="odGo4AvadJXL_m75QrnM-24" value="No" style="edgeLabel;html=1;align=center;verticalAlign=middle;resizable=0;points=[];" vertex="1" connectable="0" parent="odGo4AvadJXL_m75QrnM-23">
          <mxGeometry x="-0.2673" relative="1" as="geometry">
            <mxPoint as="offset" />
          </mxGeometry>
        </mxCell>
        <mxCell id="odGo4AvadJXL_m75QrnM-15" value="Try again?" style="strokeWidth=2;html=1;shape=mxgraph.flowchart.decision;whiteSpace=wrap;" vertex="1" parent="1">
          <mxGeometry x="790" y="329" width="100" height="100" as="geometry" />
        </mxCell>
        <mxCell id="odGo4AvadJXL_m75QrnM-17" value="Failed to identify" style="text;html=1;align=center;verticalAlign=middle;resizable=0;points=[];autosize=1;strokeColor=none;fillColor=none;" vertex="1" parent="1">
          <mxGeometry x="671.5" y="369" width="100" height="20" as="geometry" />
        </mxCell>
        <mxCell id="odGo4AvadJXL_m75QrnM-18" value="" style="edgeStyle=orthogonalEdgeStyle;rounded=0;orthogonalLoop=1;jettySize=auto;html=1;exitX=1;exitY=0.5;exitDx=0;exitDy=0;entryX=0;entryY=0.5;entryDx=0;entryDy=0;entryPerimeter=0;endArrow=none;" edge="1" parent="1" source="odGo4AvadJXL_m75QrnM-7" target="odGo4AvadJXL_m75QrnM-17">
          <mxGeometry relative="1" as="geometry">
            <mxPoint x="651.605" y="379" as="sourcePoint" />
            <mxPoint x="790" y="379" as="targetPoint" />
          </mxGeometry>
        </mxCell>
        <mxCell id="odGo4AvadJXL_m75QrnM-13" value="Identified" style="text;html=1;align=center;verticalAlign=middle;resizable=0;points=[];autosize=1;strokeColor=none;fillColor=none;" vertex="1" parent="1">
          <mxGeometry x="390" y="369" width="60" height="20" as="geometry" />
        </mxCell>
        <mxCell id="odGo4AvadJXL_m75QrnM-19" value="" style="edgeStyle=orthogonalEdgeStyle;rounded=0;orthogonalLoop=1;jettySize=auto;html=1;exitX=0;exitY=0.5;exitDx=0;exitDy=0;endArrow=none;" edge="1" parent="1" source="odGo4AvadJXL_m75QrnM-7" target="odGo4AvadJXL_m75QrnM-13">
          <mxGeometry relative="1" as="geometry">
            <mxPoint x="518.395" y="379" as="sourcePoint" />
            <mxPoint x="340" y="379" as="targetPoint" />
          </mxGeometry>
        </mxCell>
        <mxCell id="odGo4AvadJXL_m75QrnM-22" value="End" style="strokeWidth=2;html=1;shape=mxgraph.flowchart.terminator;whiteSpace=wrap;" vertex="1" parent="1">
          <mxGeometry x="790" y="530" width="100" height="60" as="geometry" />
        </mxCell>
      </root>
    </mxGraphModel>
  </diagram>
</mxfile>
